<?xml version="1.0" standalone="no"?>
<!DOCTYPE svg PUBLIC "-//W3C//DTD SVG 20010904//EN"
 "http://www.w3.org/TR/2001/REC-SVG-20010904/DTD/svg10.dtd">
<svg version="1.0" xmlns="http://www.w3.org/2000/svg"
 width="366.000000pt" height="366.000000pt" viewBox="0 0 366.000000 366.000000"
 preserveAspectRatio="xMidYMid meet">
<metadata>
Created by potrace 1.14, written by Peter Selinger 2001-2017
</metadata>
<g transform="translate(0.000000,366.000000) scale(0.100000,-0.100000)"
fill="#000000" stroke="none">
<path d="M0 2823 l0 -836 31 44 c40 56 199 212 259 252 25 17 50 35 55 39 19
16 130 81 163 94 31 14 32 17 26 52 -4 20 -11 48 -16 62 -14 39 -38 171 -38
214 0 70 40 181 83 233 39 47 141 143 152 143 6 0 25 14 43 30 18 17 36 30 39
30 3 0 38 15 77 34 88 42 171 74 214 82 17 4 32 10 32 14 0 4 15 10 33 13 17
3 79 14 137 26 173 34 201 38 290 42 170 8 477 2 550 -10 157 -26 297 -53 340
-66 289 -90 355 -118 495 -210 90 -59 138 -103 194 -178 116 -153 121 -266 21
-506 l-29 -72 30 -17 c63 -35 145 -90 163 -111 11 -11 24 -21 30 -21 19 0 181
-161 235 -233 l51 -68 0 880 0 881 -1830 0 -1830 0 0 -837z"/>
<path d="M1635 3129 c-22 -9 -60 -18 -85 -18 -26 -1 -51 -6 -56 -11 -6 -6 -40
-12 -77 -14 -88 -5 -167 -33 -168 -60 0 -19 -1 -19 -10 3 -6 15 -14 21 -25 17
-9 -3 -22 -6 -29 -6 -8 0 -17 -9 -20 -20 -5 -15 -12 -19 -25 -15 -10 3 -21 1
-24 -4 -9 -14 -66 -41 -88 -41 -10 0 -21 -7 -24 -15 -4 -8 -14 -15 -24 -15
-10 0 -20 -9 -23 -20 -4 -15 -14 -20 -36 -20 -17 0 -31 -5 -31 -11 0 -20 -64
-69 -91 -69 -28 0 -39 -16 -60 -85 -6 -22 -20 -57 -31 -77 -20 -39 -19 -108 2
-147 15 -29 80 -81 157 -127 438 -262 1233 -320 1788 -132 179 61 353 165 376
226 6 15 11 53 11 86 0 181 -207 357 -567 481 -161 56 -286 79 -313 59 -24
-18 -81 -7 -113 22 -24 23 -32 24 -200 28 -151 3 -179 1 -214 -15z"/>
<path d="M1200 1195 c0 -8 5 -15 11 -15 6 0 22 -13 35 -30 24 -28 163 -112
229 -138 28 -12 70 -21 190 -42 72 -12 217 -12 294 1 84 14 108 34 31 25 -71
-8 -285 16 -415 47 -66 16 -195 73 -195 86 0 13 -135 81 -159 81 -12 0 -21 -6
-21 -15z"/>
<path d="M0 592 l0 -592 1830 0 1830 0 0 533 0 532 -27 -35 c-232 -298 -674
-518 -1218 -605 -170 -27 -222 -30 -515 -29 -302 0 -385 8 -645 59 -378 76
-728 228 -975 425 -98 78 -157 139 -225 231 -26 35 -49 66 -51 68 -2 2 -4
-262 -4 -587z"/>
</g>
</svg>
